<svg xmlns="http://www.w3.org/2000/svg" xmlns:xlink="http://www.w3.org/1999/xlink" width="500" zoomAndPan="magnify" viewBox="0 0 375 374.999991" height="500" preserveAspectRatio="xMidYMid meet" version="1.0"><defs><g/><clipPath id="0f86f3635f"><path d="M 20.140625 20.140625 L 357.640625 20.140625 L 357.640625 357.640625 L 20.140625 357.640625 Z M 20.140625 20.140625 " clip-rule="nonzero"/></clipPath><clipPath id="484b8869bd"><path d="M 188.890625 20.140625 C 95.691406 20.140625 20.140625 95.691406 20.140625 188.890625 C 20.140625 282.085938 95.691406 357.640625 188.890625 357.640625 C 282.085938 357.640625 357.640625 282.085938 357.640625 188.890625 C 357.640625 95.691406 282.085938 20.140625 188.890625 20.140625 Z M 188.890625 20.140625 " clip-rule="nonzero"/></clipPath><linearGradient x1="128" gradientTransform="matrix(1.318359, 0, 0, 1.318359, 20.138893, 20.13889)" y1="-0.000000757851" x2="128" gradientUnits="userSpaceOnUse" y2="255.999978" id="86f65bf342"><stop stop-opacity="1" stop-color="rgb(55.699158%, 18.798828%, 20.399475%)" offset="0"/><stop stop-opacity="1" stop-color="rgb(55.514526%, 18.759155%, 20.352173%)" offset="0.0078125"/><stop stop-opacity="1" stop-color="rgb(55.14679%, 18.67981%, 20.26062%)" offset="0.015625"/><stop stop-opacity="1" stop-color="rgb(54.779053%, 18.600464%, 20.169067%)" offset="0.0234375"/><stop stop-opacity="1" stop-color="rgb(54.411316%, 18.519592%, 20.075989%)" offset="0.03125"/><stop stop-opacity="1" stop-color="rgb(54.042053%, 18.440247%, 19.984436%)" offset="0.0390625"/><stop stop-opacity="1" stop-color="rgb(53.674316%, 18.360901%, 19.891357%)" offset="0.046875"/><stop stop-opacity="1" stop-color="rgb(53.30658%, 18.281555%, 19.799805%)" offset="0.0546875"/><stop stop-opacity="1" stop-color="rgb(52.938843%, 18.200684%, 19.708252%)" offset="0.0625"/><stop stop-opacity="1" stop-color="rgb(52.571106%, 18.121338%, 19.615173%)" offset="0.0703125"/><stop stop-opacity="1" stop-color="rgb(52.203369%, 18.041992%, 19.523621%)" offset="0.078125"/><stop stop-opacity="1" stop-color="rgb(51.835632%, 17.962646%, 19.430542%)" offset="0.0859375"/><stop stop-opacity="1" stop-color="rgb(51.46637%, 17.883301%, 19.338989%)" offset="0.09375"/><stop stop-opacity="1" stop-color="rgb(51.098633%, 17.802429%, 19.245911%)" offset="0.101562"/><stop stop-opacity="1" stop-color="rgb(50.730896%, 17.723083%, 19.154358%)" offset="0.109375"/><stop stop-opacity="1" stop-color="rgb(50.363159%, 17.643738%, 19.062805%)" offset="0.117187"/><stop stop-opacity="1" stop-color="rgb(49.995422%, 17.564392%, 18.969727%)" offset="0.125"/><stop stop-opacity="1" stop-color="rgb(49.627686%, 17.483521%, 18.878174%)" offset="0.132812"/><stop stop-opacity="1" stop-color="rgb(49.258423%, 17.404175%, 18.785095%)" offset="0.140625"/><stop stop-opacity="1" stop-color="rgb(48.890686%, 17.324829%, 18.693542%)" offset="0.148438"/><stop stop-opacity="1" stop-color="rgb(48.522949%, 17.245483%, 18.60199%)" offset="0.15625"/><stop stop-opacity="1" stop-color="rgb(48.155212%, 17.166138%, 18.508911%)" offset="0.164062"/><stop stop-opacity="1" stop-color="rgb(47.787476%, 17.085266%, 18.417358%)" offset="0.171875"/><stop stop-opacity="1" stop-color="rgb(47.419739%, 17.00592%, 18.32428%)" offset="0.179688"/><stop stop-opacity="1" stop-color="rgb(47.052002%, 16.926575%, 18.232727%)" offset="0.1875"/><stop stop-opacity="1" stop-color="rgb(46.682739%, 16.847229%, 18.139648%)" offset="0.195312"/><stop stop-opacity="1" stop-color="rgb(46.315002%, 16.766357%, 18.048096%)" offset="0.203125"/><stop stop-opacity="1" stop-color="rgb(45.947266%, 16.687012%, 17.956543%)" offset="0.210938"/><stop stop-opacity="1" stop-color="rgb(45.579529%, 16.607666%, 17.863464%)" offset="0.21875"/><stop stop-opacity="1" stop-color="rgb(45.211792%, 16.52832%, 17.771912%)" offset="0.226562"/><stop stop-opacity="1" stop-color="rgb(44.844055%, 16.448975%, 17.678833%)" offset="0.234375"/><stop stop-opacity="1" stop-color="rgb(44.474792%, 16.368103%, 17.58728%)" offset="0.242188"/><stop stop-opacity="1" stop-color="rgb(44.107056%, 16.288757%, 17.495728%)" offset="0.25"/><stop stop-opacity="1" stop-color="rgb(43.739319%, 16.209412%, 17.402649%)" offset="0.257812"/><stop stop-opacity="1" stop-color="rgb(43.371582%, 16.130066%, 17.311096%)" offset="0.265625"/><stop stop-opacity="1" stop-color="rgb(43.003845%, 16.049194%, 17.218018%)" offset="0.273437"/><stop stop-opacity="1" stop-color="rgb(42.636108%, 15.969849%, 17.126465%)" offset="0.28125"/><stop stop-opacity="1" stop-color="rgb(42.268372%, 15.890503%, 17.033386%)" offset="0.289062"/><stop stop-opacity="1" stop-color="rgb(41.899109%, 15.811157%, 16.941833%)" offset="0.296875"/><stop stop-opacity="1" stop-color="rgb(41.531372%, 15.731812%, 16.850281%)" offset="0.304687"/><stop stop-opacity="1" stop-color="rgb(41.163635%, 15.65094%, 16.757202%)" offset="0.3125"/><stop stop-opacity="1" stop-color="rgb(40.795898%, 15.571594%, 16.665649%)" offset="0.320312"/><stop stop-opacity="1" stop-color="rgb(40.428162%, 15.492249%, 16.572571%)" offset="0.328125"/><stop stop-opacity="1" stop-color="rgb(40.060425%, 15.412903%, 16.481018%)" offset="0.335937"/><stop stop-opacity="1" stop-color="rgb(39.692688%, 15.332031%, 16.389465%)" offset="0.34375"/><stop stop-opacity="1" stop-color="rgb(39.323425%, 15.252686%, 16.296387%)" offset="0.351562"/><stop stop-opacity="1" stop-color="rgb(38.955688%, 15.17334%, 16.204834%)" offset="0.359375"/><stop stop-opacity="1" stop-color="rgb(38.587952%, 15.093994%, 16.111755%)" offset="0.367187"/><stop stop-opacity="1" stop-color="rgb(38.220215%, 15.014648%, 16.020203%)" offset="0.375"/><stop stop-opacity="1" stop-color="rgb(37.852478%, 14.933777%, 15.927124%)" offset="0.382812"/><stop stop-opacity="1" stop-color="rgb(37.484741%, 14.854431%, 15.835571%)" offset="0.390625"/><stop stop-opacity="1" stop-color="rgb(37.115479%, 14.775085%, 15.744019%)" offset="0.398437"/><stop stop-opacity="1" stop-color="rgb(36.747742%, 14.69574%, 15.65094%)" offset="0.40625"/><stop stop-opacity="1" stop-color="rgb(36.380005%, 14.614868%, 15.559387%)" offset="0.414062"/><stop stop-opacity="1" stop-color="rgb(36.012268%, 14.535522%, 15.466309%)" offset="0.421875"/><stop stop-opacity="1" stop-color="rgb(35.644531%, 14.456177%, 15.374756%)" offset="0.429687"/><stop stop-opacity="1" stop-color="rgb(35.276794%, 14.376831%, 15.283203%)" offset="0.4375"/><stop stop-opacity="1" stop-color="rgb(34.909058%, 14.297485%, 15.190125%)" offset="0.445312"/><stop stop-opacity="1" stop-color="rgb(34.539795%, 14.216614%, 15.098572%)" offset="0.453125"/><stop stop-opacity="1" stop-color="rgb(34.172058%, 14.137268%, 15.005493%)" offset="0.460937"/><stop stop-opacity="1" stop-color="rgb(33.804321%, 14.057922%, 14.91394%)" offset="0.46875"/><stop stop-opacity="1" stop-color="rgb(33.436584%, 13.978577%, 14.820862%)" offset="0.476562"/><stop stop-opacity="1" stop-color="rgb(33.068848%, 13.897705%, 14.729309%)" offset="0.484375"/><stop stop-opacity="1" stop-color="rgb(32.701111%, 13.818359%, 14.637756%)" offset="0.492187"/><stop stop-opacity="1" stop-color="rgb(32.331848%, 13.739014%, 14.544678%)" offset="0.5"/><stop stop-opacity="1" stop-color="rgb(31.964111%, 13.659668%, 14.453125%)" offset="0.507812"/><stop stop-opacity="1" stop-color="rgb(31.596375%, 13.578796%, 14.360046%)" offset="0.515625"/><stop stop-opacity="1" stop-color="rgb(31.228638%, 13.499451%, 14.268494%)" offset="0.523438"/><stop stop-opacity="1" stop-color="rgb(30.860901%, 13.420105%, 14.176941%)" offset="0.53125"/><stop stop-opacity="1" stop-color="rgb(30.493164%, 13.340759%, 14.083862%)" offset="0.539062"/><stop stop-opacity="1" stop-color="rgb(30.125427%, 13.261414%, 13.99231%)" offset="0.546875"/><stop stop-opacity="1" stop-color="rgb(29.756165%, 13.180542%, 13.899231%)" offset="0.554687"/><stop stop-opacity="1" stop-color="rgb(29.388428%, 13.101196%, 13.807678%)" offset="0.5625"/><stop stop-opacity="1" stop-color="rgb(29.020691%, 13.021851%, 13.7146%)" offset="0.570313"/><stop stop-opacity="1" stop-color="rgb(28.652954%, 12.942505%, 13.623047%)" offset="0.578125"/><stop stop-opacity="1" stop-color="rgb(28.285217%, 12.861633%, 13.531494%)" offset="0.585938"/><stop stop-opacity="1" stop-color="rgb(27.91748%, 12.782288%, 13.438416%)" offset="0.59375"/><stop stop-opacity="1" stop-color="rgb(27.549744%, 12.702942%, 13.346863%)" offset="0.601562"/><stop stop-opacity="1" stop-color="rgb(27.180481%, 12.623596%, 13.253784%)" offset="0.609375"/><stop stop-opacity="1" stop-color="rgb(26.812744%, 12.54425%, 13.162231%)" offset="0.617188"/><stop stop-opacity="1" stop-color="rgb(26.445007%, 12.463379%, 13.070679%)" offset="0.625"/><stop stop-opacity="1" stop-color="rgb(26.077271%, 12.384033%, 12.9776%)" offset="0.632812"/><stop stop-opacity="1" stop-color="rgb(25.709534%, 12.304688%, 12.886047%)" offset="0.640625"/><stop stop-opacity="1" stop-color="rgb(25.341797%, 12.225342%, 12.792969%)" offset="0.648438"/><stop stop-opacity="1" stop-color="rgb(24.972534%, 12.14447%, 12.701416%)" offset="0.65625"/><stop stop-opacity="1" stop-color="rgb(24.604797%, 12.065125%, 12.608337%)" offset="0.664062"/><stop stop-opacity="1" stop-color="rgb(24.237061%, 11.985779%, 12.516785%)" offset="0.671875"/><stop stop-opacity="1" stop-color="rgb(23.869324%, 11.906433%, 12.425232%)" offset="0.679687"/><stop stop-opacity="1" stop-color="rgb(23.501587%, 11.827087%, 12.332153%)" offset="0.6875"/><stop stop-opacity="1" stop-color="rgb(23.13385%, 11.746216%, 12.240601%)" offset="0.695313"/><stop stop-opacity="1" stop-color="rgb(22.766113%, 11.66687%, 12.147522%)" offset="0.703125"/><stop stop-opacity="1" stop-color="rgb(22.396851%, 11.587524%, 12.055969%)" offset="0.710938"/><stop stop-opacity="1" stop-color="rgb(22.029114%, 11.508179%, 11.964417%)" offset="0.71875"/><stop stop-opacity="1" stop-color="rgb(21.661377%, 11.427307%, 11.871338%)" offset="0.726562"/><stop stop-opacity="1" stop-color="rgb(21.29364%, 11.347961%, 11.779785%)" offset="0.734375"/><stop stop-opacity="1" stop-color="rgb(20.925903%, 11.268616%, 11.686707%)" offset="0.742188"/><stop stop-opacity="1" stop-color="rgb(20.558167%, 11.18927%, 11.595154%)" offset="0.75"/><stop stop-opacity="1" stop-color="rgb(20.188904%, 11.109924%, 11.502075%)" offset="0.757812"/><stop stop-opacity="1" stop-color="rgb(19.821167%, 11.029053%, 11.410522%)" offset="0.765625"/><stop stop-opacity="1" stop-color="rgb(19.45343%, 10.949707%, 11.31897%)" offset="0.773438"/><stop stop-opacity="1" stop-color="rgb(19.085693%, 10.870361%, 11.225891%)" offset="0.78125"/><stop stop-opacity="1" stop-color="rgb(18.717957%, 10.791016%, 11.134338%)" offset="0.789062"/><stop stop-opacity="1" stop-color="rgb(18.35022%, 10.710144%, 11.04126%)" offset="0.796875"/><stop stop-opacity="1" stop-color="rgb(17.982483%, 10.630798%, 10.949707%)" offset="0.804687"/><stop stop-opacity="1" stop-color="rgb(17.61322%, 10.551453%, 10.858154%)" offset="0.8125"/><stop stop-opacity="1" stop-color="rgb(17.245483%, 10.472107%, 10.765076%)" offset="0.820313"/><stop stop-opacity="1" stop-color="rgb(16.877747%, 10.392761%, 10.673523%)" offset="0.828125"/><stop stop-opacity="1" stop-color="rgb(16.51001%, 10.31189%, 10.580444%)" offset="0.835938"/><stop stop-opacity="1" stop-color="rgb(16.142273%, 10.232544%, 10.488892%)" offset="0.84375"/><stop stop-opacity="1" stop-color="rgb(15.774536%, 10.153198%, 10.397339%)" offset="0.851562"/><stop stop-opacity="1" stop-color="rgb(15.405273%, 10.073853%, 10.30426%)" offset="0.859375"/><stop stop-opacity="1" stop-color="rgb(15.037537%, 9.992981%, 10.212708%)" offset="0.867188"/><stop stop-opacity="1" stop-color="rgb(14.6698%, 9.913635%, 10.119629%)" offset="0.875"/><stop stop-opacity="1" stop-color="rgb(14.302063%, 9.83429%, 10.028076%)" offset="0.882812"/><stop stop-opacity="1" stop-color="rgb(13.934326%, 9.754944%, 9.934998%)" offset="0.890625"/><stop stop-opacity="1" stop-color="rgb(13.566589%, 9.675598%, 9.843445%)" offset="0.898438"/><stop stop-opacity="1" stop-color="rgb(13.198853%, 9.594727%, 9.751892%)" offset="0.90625"/><stop stop-opacity="1" stop-color="rgb(12.82959%, 9.515381%, 9.658813%)" offset="0.914062"/><stop stop-opacity="1" stop-color="rgb(12.461853%, 9.436035%, 9.567261%)" offset="0.921875"/><stop stop-opacity="1" stop-color="rgb(12.094116%, 9.356689%, 9.474182%)" offset="0.929687"/><stop stop-opacity="1" stop-color="rgb(11.726379%, 9.275818%, 9.382629%)" offset="0.9375"/><stop stop-opacity="1" stop-color="rgb(11.358643%, 9.196472%, 9.291077%)" offset="0.945313"/><stop stop-opacity="1" stop-color="rgb(10.990906%, 9.117126%, 9.197998%)" offset="0.953125"/><stop stop-opacity="1" stop-color="rgb(10.623169%, 9.037781%, 9.106445%)" offset="0.960938"/><stop stop-opacity="1" stop-color="rgb(10.253906%, 8.956909%, 9.013367%)" offset="0.96875"/><stop stop-opacity="1" stop-color="rgb(9.886169%, 8.877563%, 8.921814%)" offset="0.976562"/><stop stop-opacity="1" stop-color="rgb(9.518433%, 8.798218%, 8.828735%)" offset="0.984375"/><stop stop-opacity="1" stop-color="rgb(9.150696%, 8.718872%, 8.737183%)" offset="0.992188"/><stop stop-opacity="1" stop-color="rgb(8.782959%, 8.639526%, 8.64563%)" offset="1"/></linearGradient><clipPath id="02836d37bf"><path d="M 74.820312 84.269531 L 303.050781 84.269531 L 303.050781 290.835938 L 74.820312 290.835938 Z M 74.820312 84.269531 " clip-rule="nonzero"/></clipPath></defs><g clip-path="url(#0f86f3635f)"><g clip-path="url(#484b8869bd)"><path fill="url(#86f65bf342)" d="M 20.140625 20.140625 L 20.140625 357.640625 L 357.640625 357.640625 L 357.640625 20.140625 Z M 20.140625 20.140625 " fill-rule="nonzero"/></g></g><g clip-path="url(#02836d37bf)"><path fill="#ffffff" d="M 286.605469 116.214844 L 257.453125 116.214844 L 257.453125 88.183594 C 257.453125 87.703125 257.359375 87.242188 257.175781 86.796875 C 256.992188 86.351562 256.730469 85.960938 256.390625 85.621094 C 256.050781 85.28125 255.660156 85.019531 255.214844 84.835938 C 254.769531 84.652344 254.308594 84.558594 253.828125 84.558594 C 253.347656 84.558594 252.886719 84.652344 252.441406 84.835938 C 251.996094 85.019531 251.605469 85.28125 251.265625 85.621094 C 250.925781 85.960938 250.664062 86.351562 250.480469 86.796875 C 250.296875 87.242188 250.203125 87.703125 250.203125 88.183594 L 250.203125 116.214844 L 226.648438 116.214844 L 226.648438 88.183594 C 226.648438 87.703125 226.554688 87.242188 226.371094 86.796875 C 226.1875 86.351562 225.925781 85.960938 225.585938 85.621094 C 225.246094 85.28125 224.855469 85.019531 224.410156 84.835938 C 223.96875 84.652344 223.503906 84.558594 223.023438 84.558594 C 222.542969 84.558594 222.082031 84.652344 221.636719 84.835938 C 221.191406 85.019531 220.800781 85.28125 220.460938 85.621094 C 220.121094 85.960938 219.859375 86.351562 219.675781 86.796875 C 219.492188 87.242188 219.398438 87.703125 219.398438 88.183594 L 219.398438 116.214844 L 192.601562 116.214844 L 192.601562 88.183594 C 192.601562 87.703125 192.507812 87.242188 192.324219 86.796875 C 192.140625 86.351562 191.878906 85.960938 191.539062 85.621094 C 191.199219 85.28125 190.808594 85.019531 190.363281 84.835938 C 189.917969 84.652344 189.457031 84.558594 188.976562 84.558594 C 188.496094 84.558594 188.035156 84.652344 187.589844 84.835938 C 187.144531 85.019531 186.753906 85.28125 186.414062 85.621094 C 186.074219 85.960938 185.8125 86.351562 185.628906 86.796875 C 185.445312 87.242188 185.351562 87.703125 185.351562 88.183594 L 185.351562 116.214844 L 165.421875 116.214844 L 165.421875 88.183594 C 165.421875 87.703125 165.328125 87.242188 165.144531 86.796875 C 164.960938 86.351562 164.699219 85.960938 164.359375 85.621094 C 164.019531 85.28125 163.628906 85.019531 163.183594 84.835938 C 162.738281 84.652344 162.277344 84.558594 161.796875 84.558594 C 161.316406 84.558594 160.855469 84.652344 160.410156 84.835938 C 159.964844 85.019531 159.574219 85.28125 159.234375 85.621094 C 158.894531 85.960938 158.632812 86.351562 158.449219 86.796875 C 158.265625 87.242188 158.171875 87.703125 158.171875 88.183594 L 158.171875 116.214844 L 134.617188 116.214844 L 134.617188 88.183594 C 134.617188 87.703125 134.523438 87.242188 134.339844 86.796875 C 134.15625 86.351562 133.894531 85.960938 133.554688 85.621094 C 133.214844 85.28125 132.824219 85.019531 132.378906 84.835938 C 131.9375 84.652344 131.472656 84.558594 130.992188 84.558594 C 130.511719 84.558594 130.050781 84.652344 129.605469 84.835938 C 129.164062 85.019531 128.769531 85.28125 128.429688 85.621094 C 128.089844 85.960938 127.828125 86.351562 127.644531 86.796875 C 127.460938 87.242188 127.367188 87.703125 127.367188 88.183594 L 127.367188 116.214844 L 91.347656 116.214844 C 90.808594 116.214844 90.269531 116.242188 89.730469 116.296875 C 89.195312 116.351562 88.660156 116.429688 88.132812 116.535156 C 87.601562 116.640625 87.078125 116.773438 86.5625 116.929688 C 86.046875 117.085938 85.539062 117.269531 85.039062 117.476562 C 84.539062 117.683594 84.054688 117.914062 83.578125 118.167969 C 83.101562 118.421875 82.640625 118.699219 82.191406 119 C 81.742188 119.300781 81.308594 119.621094 80.890625 119.964844 C 80.472656 120.304688 80.074219 120.667969 79.691406 121.050781 C 79.3125 121.433594 78.949219 121.832031 78.605469 122.25 C 78.261719 122.667969 77.941406 123.097656 77.640625 123.546875 C 77.34375 123.996094 77.066406 124.460938 76.808594 124.933594 C 76.554688 125.410156 76.324219 125.898438 76.117188 126.398438 C 75.910156 126.894531 75.730469 127.402344 75.570312 127.921875 C 75.414062 128.4375 75.28125 128.960938 75.175781 129.488281 C 75.070312 130.019531 74.992188 130.550781 74.9375 131.089844 C 74.886719 131.625 74.859375 132.164062 74.859375 132.703125 L 74.859375 157.675781 C 74.863281 158.074219 74.933594 158.460938 75.066406 158.835938 C 75.199219 159.210938 75.390625 159.554688 75.636719 159.867188 C 75.886719 160.179688 76.175781 160.445312 76.511719 160.664062 C 76.847656 160.878906 77.207031 161.039062 77.59375 161.136719 C 78.925781 161.425781 80.226562 161.832031 81.488281 162.34375 C 82.753906 162.855469 83.964844 163.472656 85.125 164.191406 C 86.285156 164.910156 87.375 165.722656 88.398438 166.625 C 89.417969 167.53125 90.359375 168.511719 91.214844 169.578125 C 92.070312 170.640625 92.828125 171.769531 93.492188 172.960938 C 94.15625 174.152344 94.714844 175.390625 95.167969 176.679688 C 95.621094 177.964844 95.960938 179.28125 96.191406 180.625 C 96.421875 181.972656 96.535156 183.328125 96.535156 184.691406 C 96.535156 186.054688 96.421875 187.410156 96.191406 188.753906 C 95.960938 190.101562 95.621094 191.414062 95.167969 192.703125 C 94.714844 193.988281 94.15625 195.230469 93.492188 196.421875 C 92.828125 197.613281 92.070312 198.742188 91.214844 199.804688 C 90.359375 200.867188 89.417969 201.851562 88.398438 202.753906 C 87.375 203.660156 86.285156 204.472656 85.125 205.191406 C 83.964844 205.910156 82.753906 206.523438 81.488281 207.039062 C 80.226562 207.550781 78.925781 207.953125 77.59375 208.246094 C 77.203125 208.339844 76.835938 208.496094 76.496094 208.714844 C 76.15625 208.929688 75.863281 209.195312 75.609375 209.511719 C 75.359375 209.824219 75.167969 210.171875 75.03125 210.550781 C 74.894531 210.933594 74.828125 211.324219 74.820312 211.726562 L 74.820312 240.300781 C 74.820312 240.839844 74.847656 241.378906 74.902344 241.917969 C 74.957031 242.453125 75.035156 242.988281 75.140625 243.515625 C 75.246094 244.046875 75.378906 244.570312 75.535156 245.085938 C 75.691406 245.601562 75.875 246.109375 76.082031 246.609375 C 76.289062 247.105469 76.519531 247.59375 76.773438 248.070312 C 77.027344 248.546875 77.304688 249.007812 77.605469 249.457031 C 77.90625 249.90625 78.226562 250.339844 78.570312 250.757812 C 78.914062 251.171875 79.273438 251.574219 79.65625 251.953125 C 80.039062 252.335938 80.4375 252.699219 80.855469 253.042969 C 81.273438 253.382812 81.707031 253.707031 82.152344 254.003906 C 82.601562 254.304688 83.066406 254.582031 83.542969 254.835938 C 84.015625 255.09375 84.503906 255.324219 85.003906 255.53125 C 85.5 255.738281 86.007812 255.917969 86.527344 256.074219 C 87.042969 256.234375 87.566406 256.363281 88.09375 256.46875 C 88.625 256.574219 89.15625 256.65625 89.695312 256.707031 C 90.230469 256.761719 90.769531 256.789062 91.308594 256.789062 L 127.367188 256.789062 L 127.367188 286.921875 C 127.367188 287.402344 127.460938 287.867188 127.644531 288.308594 C 127.828125 288.753906 128.089844 289.144531 128.429688 289.484375 C 128.769531 289.824219 129.164062 290.085938 129.605469 290.269531 C 130.050781 290.457031 130.511719 290.546875 130.992188 290.546875 C 131.472656 290.546875 131.9375 290.457031 132.378906 290.269531 C 132.824219 290.085938 133.214844 289.824219 133.554688 289.484375 C 133.894531 289.144531 134.15625 288.753906 134.339844 288.308594 C 134.523438 287.867188 134.617188 287.402344 134.617188 286.921875 L 134.617188 256.789062 L 158.171875 256.789062 L 158.171875 286.921875 C 158.171875 287.402344 158.265625 287.867188 158.449219 288.308594 C 158.632812 288.753906 158.894531 289.144531 159.234375 289.484375 C 159.574219 289.824219 159.964844 290.085938 160.410156 290.269531 C 160.855469 290.457031 161.316406 290.546875 161.796875 290.546875 C 162.277344 290.546875 162.738281 290.457031 163.183594 290.269531 C 163.628906 290.085938 164.019531 289.824219 164.359375 289.484375 C 164.699219 289.144531 164.960938 288.753906 165.144531 288.308594 C 165.328125 287.867188 165.421875 287.402344 165.421875 286.921875 L 165.421875 256.789062 L 185.351562 256.789062 L 185.351562 286.921875 C 185.351562 287.402344 185.445312 287.867188 185.628906 288.308594 C 185.8125 288.753906 186.074219 289.144531 186.414062 289.484375 C 186.753906 289.824219 187.144531 290.085938 187.589844 290.269531 C 188.035156 290.457031 188.496094 290.546875 188.976562 290.546875 C 189.457031 290.546875 189.917969 290.457031 190.363281 290.269531 C 190.808594 290.085938 191.199219 289.824219 191.539062 289.484375 C 191.878906 289.144531 192.140625 288.753906 192.324219 288.308594 C 192.507812 287.867188 192.601562 287.402344 192.601562 286.921875 L 192.601562 256.789062 L 219.328125 256.789062 L 219.328125 286.921875 C 219.328125 287.402344 219.417969 287.867188 219.601562 288.308594 C 219.789062 288.753906 220.050781 289.144531 220.390625 289.484375 C 220.730469 289.824219 221.121094 290.085938 221.566406 290.269531 C 222.007812 290.457031 222.472656 290.546875 222.953125 290.546875 C 223.433594 290.546875 223.894531 290.457031 224.339844 290.269531 C 224.78125 290.085938 225.175781 289.824219 225.515625 289.484375 C 225.855469 289.144531 226.117188 288.753906 226.300781 288.308594 C 226.484375 287.867188 226.574219 287.402344 226.574219 286.921875 L 226.574219 256.789062 L 250.132812 256.789062 L 250.132812 286.921875 C 250.132812 287.402344 250.222656 287.867188 250.40625 288.308594 C 250.589844 288.753906 250.851562 289.144531 251.191406 289.484375 C 251.53125 289.824219 251.925781 290.085938 252.367188 290.269531 C 252.8125 290.457031 253.273438 290.546875 253.753906 290.546875 C 254.234375 290.546875 254.699219 290.457031 255.140625 290.269531 C 255.585938 290.085938 255.976562 289.824219 256.316406 289.484375 C 256.65625 289.144531 256.917969 288.753906 257.105469 288.308594 C 257.289062 287.867188 257.378906 287.402344 257.378906 286.921875 L 257.378906 256.789062 L 286.535156 256.789062 C 287.074219 256.789062 287.613281 256.761719 288.148438 256.707031 C 288.6875 256.65625 289.21875 256.574219 289.75 256.46875 C 290.28125 256.363281 290.800781 256.234375 291.320312 256.074219 C 291.835938 255.917969 292.34375 255.738281 292.839844 255.53125 C 293.339844 255.324219 293.828125 255.09375 294.304688 254.835938 C 294.78125 254.582031 295.242188 254.304688 295.691406 254.003906 C 296.140625 253.707031 296.574219 253.382812 296.988281 253.042969 C 297.40625 252.699219 297.808594 252.335938 298.1875 251.953125 C 298.570312 251.574219 298.933594 251.171875 299.273438 250.757812 C 299.617188 250.339844 299.9375 249.90625 300.238281 249.457031 C 300.539062 249.007812 300.816406 248.546875 301.070312 248.070312 C 301.324219 247.59375 301.554688 247.105469 301.761719 246.609375 C 301.96875 246.109375 302.152344 245.601562 302.308594 245.085938 C 302.464844 244.570312 302.597656 244.046875 302.703125 243.515625 C 302.808594 242.988281 302.890625 242.453125 302.941406 241.917969 C 302.996094 241.378906 303.023438 240.839844 303.023438 240.300781 L 303.023438 206.707031 C 303.023438 206.226562 302.929688 205.761719 302.746094 205.320312 C 302.5625 204.875 302.300781 204.484375 301.960938 204.144531 C 301.621094 203.804688 301.230469 203.542969 300.785156 203.359375 C 300.34375 203.175781 299.878906 203.082031 299.398438 203.082031 C 298.769531 203.082031 298.144531 203.050781 297.515625 202.988281 C 296.890625 202.929688 296.269531 202.839844 295.652344 202.71875 C 295.035156 202.597656 294.425781 202.449219 293.820312 202.273438 C 293.21875 202.097656 292.625 201.890625 292.039062 201.660156 C 291.453125 201.425781 290.882812 201.167969 290.324219 200.878906 C 289.761719 200.59375 289.21875 200.28125 288.6875 199.941406 C 288.15625 199.605469 287.644531 199.242188 287.148438 198.855469 C 286.652344 198.46875 286.175781 198.058594 285.71875 197.628906 C 285.261719 197.199219 284.824219 196.746094 284.410156 196.273438 C 283.992188 195.800781 283.601562 195.308594 283.234375 194.800781 C 282.863281 194.289062 282.519531 193.765625 282.199219 193.222656 C 281.882812 192.679688 281.589844 192.125 281.320312 191.554688 C 281.054688 190.988281 280.816406 190.40625 280.601562 189.8125 C 280.390625 189.222656 280.207031 188.621094 280.050781 188.011719 C 279.894531 187.402344 279.769531 186.785156 279.671875 186.164062 C 279.574219 185.542969 279.507812 184.917969 279.46875 184.292969 C 279.425781 182.992188 279.511719 181.703125 279.730469 180.417969 C 279.945312 179.136719 280.289062 177.886719 280.753906 176.675781 C 281.222656 175.460938 281.804688 174.304688 282.503906 173.207031 C 283.199219 172.113281 284 171.09375 284.902344 170.160156 C 285.832031 169.167969 286.855469 168.28125 287.964844 167.5 C 289.078125 166.71875 290.253906 166.058594 291.5 165.515625 C 292.75 164.976562 294.035156 164.566406 295.367188 164.289062 C 296.695312 164.011719 298.039062 163.875 299.398438 163.871094 C 299.878906 163.871094 300.34375 163.777344 300.785156 163.59375 C 301.230469 163.410156 301.621094 163.148438 301.960938 162.808594 C 302.300781 162.46875 302.5625 162.078125 302.746094 161.632812 C 302.929688 161.191406 303.023438 160.726562 303.023438 160.246094 L 303.023438 132.703125 C 303.023438 132.167969 302.996094 131.628906 302.941406 131.09375 C 302.890625 130.558594 302.8125 130.027344 302.707031 129.496094 C 302.601562 128.96875 302.46875 128.449219 302.3125 127.933594 C 302.15625 127.417969 301.976562 126.910156 301.769531 126.414062 C 301.566406 125.917969 301.335938 125.429688 301.082031 124.957031 C 300.828125 124.480469 300.550781 124.019531 300.253906 123.570312 C 299.957031 123.121094 299.636719 122.691406 299.296875 122.273438 C 298.953125 121.855469 298.59375 121.457031 298.214844 121.074219 C 297.835938 120.695312 297.4375 120.332031 297.023438 119.988281 C 296.605469 119.648438 296.175781 119.324219 295.730469 119.023438 C 295.28125 118.726562 294.820312 118.445312 294.347656 118.191406 C 293.875 117.9375 293.386719 117.703125 292.890625 117.496094 C 292.394531 117.289062 291.890625 117.105469 291.375 116.945312 C 290.859375 116.789062 290.339844 116.65625 289.8125 116.546875 C 289.285156 116.441406 288.753906 116.359375 288.21875 116.304688 C 287.683594 116.246094 287.144531 116.21875 286.605469 116.214844 Z M 295.882812 156.875 C 292.8125 157.304688 289.898438 158.226562 287.144531 159.648438 C 284.386719 161.070312 281.941406 162.90625 279.8125 165.15625 C 278.566406 166.453125 277.460938 167.855469 276.496094 169.375 C 275.53125 170.890625 274.730469 172.488281 274.085938 174.164062 C 273.445312 175.84375 272.976562 177.566406 272.679688 179.339844 C 272.382812 181.109375 272.265625 182.894531 272.328125 184.691406 C 272.425781 186.253906 272.65625 187.796875 273.019531 189.320312 C 273.382812 190.84375 273.875 192.324219 274.492188 193.761719 C 275.109375 195.199219 275.847656 196.574219 276.703125 197.886719 C 277.554688 199.199219 278.515625 200.429688 279.582031 201.578125 C 280.644531 202.722656 281.800781 203.773438 283.046875 204.722656 C 284.292969 205.671875 285.609375 206.507812 287 207.230469 C 288.386719 207.953125 289.828125 208.550781 291.320312 209.023438 C 292.8125 209.5 294.332031 209.84375 295.882812 210.058594 L 295.882812 240.28125 C 295.882812 240.890625 295.824219 241.488281 295.703125 242.085938 C 295.585938 242.679688 295.410156 243.257812 295.175781 243.816406 C 294.941406 244.375 294.660156 244.910156 294.320312 245.414062 C 293.984375 245.917969 293.601562 246.382812 293.171875 246.8125 C 292.742188 247.242188 292.277344 247.625 291.773438 247.960938 C 291.269531 248.296875 290.738281 248.582031 290.175781 248.816406 C 289.617188 249.046875 289.039062 249.222656 288.445312 249.34375 C 287.851562 249.460938 287.25 249.523438 286.644531 249.523438 L 91.347656 249.523438 C 90.742188 249.523438 90.140625 249.460938 89.546875 249.34375 C 88.949219 249.222656 88.375 249.046875 87.8125 248.816406 C 87.253906 248.582031 86.722656 248.296875 86.21875 247.960938 C 85.710938 247.625 85.246094 247.242188 84.816406 246.8125 C 84.390625 246.382812 84.003906 245.917969 83.667969 245.414062 C 83.332031 244.910156 83.046875 244.375 82.8125 243.816406 C 82.582031 243.257812 82.40625 242.679688 82.285156 242.085938 C 82.167969 241.488281 82.105469 240.890625 82.105469 240.28125 L 82.105469 214.425781 C 83.660156 213.914062 85.164062 213.28125 86.617188 212.535156 C 88.070312 211.785156 89.460938 210.929688 90.78125 209.960938 C 92.097656 208.996094 93.335938 207.933594 94.488281 206.773438 C 95.644531 205.613281 96.699219 204.371094 97.65625 203.042969 C 98.617188 201.71875 99.464844 200.328125 100.207031 198.867188 C 100.945312 197.410156 101.566406 195.902344 102.070312 194.34375 C 102.574219 192.789062 102.953125 191.203125 103.210938 189.585938 C 103.464844 187.96875 103.589844 186.34375 103.589844 184.707031 C 103.589844 183.074219 103.464844 181.445312 103.210938 179.832031 C 102.953125 178.214844 102.574219 176.628906 102.070312 175.074219 C 101.566406 173.515625 100.945312 172.007812 100.207031 170.550781 C 99.464844 169.089844 98.617188 167.699219 97.65625 166.375 C 96.699219 165.046875 95.644531 163.804688 94.488281 162.644531 C 93.335938 161.484375 92.097656 160.421875 90.78125 159.457031 C 89.460938 158.488281 88.070312 157.632812 86.617188 156.882812 C 85.164062 156.136719 83.660156 155.503906 82.105469 154.992188 L 82.105469 132.703125 C 82.105469 132.097656 82.167969 131.496094 82.285156 130.902344 C 82.40625 130.308594 82.582031 129.730469 82.8125 129.171875 C 83.046875 128.609375 83.332031 128.078125 83.667969 127.574219 C 84.003906 127.070312 84.390625 126.605469 84.816406 126.175781 C 85.246094 125.746094 85.710938 125.363281 86.21875 125.027344 C 86.722656 124.6875 87.253906 124.40625 87.8125 124.171875 C 88.375 123.9375 88.949219 123.761719 89.546875 123.644531 C 90.140625 123.523438 90.742188 123.464844 91.347656 123.464844 L 286.605469 123.464844 C 287.214844 123.464844 287.8125 123.523438 288.410156 123.644531 C 289.003906 123.761719 289.582031 123.9375 290.140625 124.171875 C 290.699219 124.40625 291.234375 124.6875 291.738281 125.027344 C 292.242188 125.363281 292.707031 125.746094 293.136719 126.175781 C 293.566406 126.605469 293.949219 127.070312 294.285156 127.574219 C 294.621094 128.078125 294.90625 128.609375 295.140625 129.171875 C 295.371094 129.730469 295.546875 130.308594 295.667969 130.902344 C 295.785156 131.496094 295.847656 132.097656 295.847656 132.703125 Z M 295.882812 156.875 " fill-opacity="1" fill-rule="nonzero"/></g><path fill="#ffffff" d="M 122.820312 214.28125 L 113.761719 214.28125 C 113.085938 214.28125 112.414062 214.34375 111.75 214.476562 C 111.089844 214.605469 110.445312 214.800781 109.816406 215.058594 C 109.191406 215.3125 108.597656 215.628906 108.035156 216.003906 C 107.472656 216.378906 106.949219 216.804688 106.472656 217.28125 C 105.992188 217.757812 105.5625 218.277344 105.1875 218.839844 C 104.808594 219.398438 104.492188 219.992188 104.230469 220.617188 C 103.96875 221.238281 103.773438 221.882812 103.636719 222.546875 C 103.503906 223.207031 103.433594 223.878906 103.433594 224.554688 L 103.433594 233.613281 C 103.433594 234.289062 103.5 234.960938 103.628906 235.625 C 103.761719 236.285156 103.957031 236.929688 104.214844 237.554688 C 104.472656 238.179688 104.792969 238.773438 105.167969 239.335938 C 105.542969 239.898438 105.96875 240.417969 106.445312 240.898438 C 106.925781 241.378906 107.445312 241.804688 108.003906 242.179688 C 108.566406 242.558594 109.160156 242.875 109.785156 243.132812 C 110.410156 243.394531 111.054688 243.589844 111.714844 243.722656 C 112.378906 243.855469 113.046875 243.921875 113.726562 243.925781 L 122.785156 243.925781 C 123.460938 243.925781 124.132812 243.859375 124.796875 243.730469 C 125.464844 243.597656 126.109375 243.402344 126.734375 243.144531 C 127.363281 242.886719 127.957031 242.570312 128.523438 242.195312 C 129.085938 241.816406 129.605469 241.390625 130.085938 240.910156 C 130.566406 240.433594 130.996094 239.910156 131.371094 239.347656 C 131.75 238.785156 132.066406 238.191406 132.328125 237.5625 C 132.585938 236.9375 132.78125 236.292969 132.914062 235.628906 C 133.046875 234.964844 133.113281 234.292969 133.113281 233.613281 L 133.113281 224.554688 C 133.109375 223.878906 133.042969 223.210938 132.910156 222.550781 C 132.777344 221.890625 132.578125 221.246094 132.320312 220.625 C 132.058594 220 131.742188 219.410156 131.367188 218.847656 C 130.992188 218.289062 130.566406 217.769531 130.085938 217.292969 C 129.609375 216.816406 129.089844 216.390625 128.527344 216.015625 C 127.96875 215.640625 127.375 215.324219 126.753906 215.066406 C 126.128906 214.808594 125.488281 214.613281 124.824219 214.480469 C 124.164062 214.347656 123.496094 214.28125 122.820312 214.28125 Z M 125.863281 233.613281 C 125.863281 234.019531 125.789062 234.410156 125.632812 234.78125 C 125.480469 235.15625 125.261719 235.488281 124.976562 235.773438 C 124.691406 236.058594 124.359375 236.28125 123.988281 236.4375 C 123.613281 236.59375 123.226562 236.675781 122.820312 236.675781 L 113.761719 236.675781 C 113.351562 236.679688 112.960938 236.601562 112.582031 236.449219 C 112.207031 236.292969 111.875 236.074219 111.585938 235.785156 C 111.292969 235.5 111.070312 235.167969 110.914062 234.789062 C 110.757812 234.414062 110.679688 234.023438 110.679688 233.613281 L 110.679688 224.554688 C 110.679688 224.152344 110.757812 223.761719 110.914062 223.390625 C 111.066406 223.015625 111.285156 222.6875 111.574219 222.402344 C 111.859375 222.117188 112.1875 221.898438 112.558594 221.742188 C 112.933594 221.585938 113.320312 221.511719 113.726562 221.511719 L 122.785156 221.511719 C 123.191406 221.503906 123.582031 221.578125 123.960938 221.730469 C 124.339844 221.882812 124.671875 222.101562 124.960938 222.390625 C 125.25 222.675781 125.472656 223.003906 125.628906 223.382812 C 125.785156 223.757812 125.863281 224.148438 125.863281 224.554688 Z M 125.863281 233.613281 " fill-opacity="1" fill-rule="nonzero"/><g fill="#ffffff" fill-opacity="1"><g transform="translate(109.262736, 150.848017)"><g><path d="M 9.015625 0.40625 C 7.859375 0.40625 6.816406 0.285156 5.890625 0.046875 C 4.972656 -0.179688 4.113281 -0.546875 3.3125 -1.046875 C 2.519531 -1.546875 1.71875 -2.210938 0.90625 -3.046875 L 2.25 -4.375 C 2.96875 -3.65625 3.648438 -3.085938 4.296875 -2.671875 C 4.941406 -2.265625 5.632812 -1.96875 6.375 -1.78125 C 7.125 -1.59375 8 -1.5 9 -1.5 C 9.8125 -1.5 10.648438 -1.59375 11.515625 -1.78125 C 12.378906 -1.96875 13.125 -2.296875 13.75 -2.765625 C 14.382812 -3.242188 14.703125 -3.894531 14.703125 -4.71875 C 14.703125 -5.3125 14.519531 -5.8125 14.15625 -6.21875 C 13.800781 -6.625 13.34375 -6.921875 12.78125 -7.109375 C 12.226562 -7.304688 11.660156 -7.414062 11.078125 -7.4375 L 7.6875 -7.46875 C 6.6875 -7.488281 5.894531 -7.5625 5.3125 -7.6875 C 4.738281 -7.820312 4.210938 -8.046875 3.734375 -8.359375 C 3.210938 -8.703125 2.804688 -9.15625 2.515625 -9.71875 C 2.222656 -10.289062 2.078125 -10.894531 2.078125 -11.53125 C 2.078125 -12.625 2.429688 -13.53125 3.140625 -14.25 C 3.847656 -14.976562 4.726562 -15.507812 5.78125 -15.84375 C 6.84375 -16.175781 7.90625 -16.34375 8.96875 -16.34375 C 10.257812 -16.34375 11.445312 -16.148438 12.53125 -15.765625 C 13.613281 -15.378906 14.6875 -14.785156 15.75 -13.984375 L 14.5625 -12.515625 C 13.601562 -13.179688 12.695312 -13.664062 11.84375 -13.96875 C 10.988281 -14.28125 10.007812 -14.4375 8.90625 -14.4375 C 8.238281 -14.4375 7.519531 -14.335938 6.75 -14.140625 C 5.988281 -13.953125 5.335938 -13.640625 4.796875 -13.203125 C 4.253906 -12.765625 3.984375 -12.207031 3.984375 -11.53125 C 3.984375 -11.195312 4.066406 -10.875 4.234375 -10.5625 C 4.410156 -10.257812 4.640625 -10.03125 4.921875 -9.875 C 5.179688 -9.726562 5.425781 -9.625 5.65625 -9.5625 C 5.894531 -9.5 6.203125 -9.453125 6.578125 -9.421875 C 6.960938 -9.390625 7.5 -9.367188 8.1875 -9.359375 L 10.5625 -9.34375 C 11.1875 -9.34375 11.769531 -9.300781 12.3125 -9.21875 C 12.851562 -9.144531 13.363281 -9.003906 13.84375 -8.796875 C 14.382812 -8.578125 14.863281 -8.25 15.28125 -7.8125 C 15.707031 -7.382812 16.035156 -6.894531 16.265625 -6.34375 C 16.492188 -5.800781 16.609375 -5.238281 16.609375 -4.65625 C 16.609375 -3.445312 16.210938 -2.460938 15.421875 -1.703125 C 14.640625 -0.953125 13.671875 -0.410156 12.515625 -0.078125 C 11.367188 0.242188 10.203125 0.40625 9.015625 0.40625 Z M 9.015625 0.40625 "/></g></g></g><g fill="#ffffff" fill-opacity="1"><g transform="translate(127.107186, 150.848017)"><g><path d="M 11.046875 0.40625 C 9.410156 0.40625 7.910156 0.0546875 6.546875 -0.640625 C 5.191406 -1.335938 4.117188 -2.320312 3.328125 -3.59375 C 2.535156 -4.863281 2.140625 -6.328125 2.140625 -7.984375 C 2.140625 -9.597656 2.519531 -11.046875 3.28125 -12.328125 C 4.050781 -13.617188 5.09375 -14.617188 6.40625 -15.328125 C 7.71875 -16.046875 9.179688 -16.40625 10.796875 -16.40625 C 12.285156 -16.40625 13.6875 -16.132812 15 -15.59375 C 16.320312 -15.050781 17.5 -14.257812 18.53125 -13.21875 L 17.1875 -11.90625 C 16.207031 -12.769531 15.1875 -13.425781 14.125 -13.875 C 13.070312 -14.320312 11.925781 -14.546875 10.6875 -14.546875 C 9.488281 -14.546875 8.378906 -14.257812 7.359375 -13.6875 C 6.335938 -13.113281 5.523438 -12.328125 4.921875 -11.328125 C 4.328125 -10.328125 4.03125 -9.226562 4.03125 -8.03125 C 4.03125 -6.71875 4.347656 -5.5625 4.984375 -4.5625 C 5.628906 -3.570312 6.492188 -2.8125 7.578125 -2.28125 C 8.671875 -1.75 9.863281 -1.484375 11.15625 -1.484375 C 12.425781 -1.484375 13.570312 -1.707031 14.59375 -2.15625 C 15.613281 -2.601562 16.578125 -3.289062 17.484375 -4.21875 L 18.765625 -2.78125 C 18.003906 -2.03125 17.238281 -1.421875 16.46875 -0.953125 C 15.695312 -0.484375 14.875 -0.140625 14 0.078125 C 13.125 0.296875 12.140625 0.40625 11.046875 0.40625 Z M 11.046875 0.40625 "/></g></g></g><g fill="#ffffff" fill-opacity="1"><g transform="translate(147.329465, 150.848017)"><g><path d="M 2.46875 0 L 0.359375 0 L 7.984375 -16 L 9.921875 -16 L 17.421875 0 L 15.3125 0 L 12.703125 -5.5 L 4.984375 -5.5 Z M 8.9375 -13.703125 L 5.9375 -7.375 L 11.875 -7.375 Z M 8.9375 -13.703125 "/></g></g></g><g fill="#ffffff" fill-opacity="1"><g transform="translate(165.173915, 150.848017)"><g><path d="M 3.21875 0 L 3.21875 -16 L 11.09375 -16 C 12.882812 -16 14.332031 -15.523438 15.4375 -14.578125 C 16.539062 -13.640625 17.328125 -12.546875 17.796875 -11.296875 C 18.273438 -10.046875 18.515625 -8.929688 18.515625 -7.953125 C 18.515625 -6.617188 18.195312 -5.34375 17.5625 -4.125 C 16.9375 -2.90625 16.070312 -1.910156 14.96875 -1.140625 C 13.875 -0.378906 12.65625 0 11.3125 0 Z M 11.3125 -1.890625 C 12.3125 -1.890625 13.21875 -2.1875 14.03125 -2.78125 C 14.84375 -3.382812 15.476562 -4.160156 15.9375 -5.109375 C 16.394531 -6.054688 16.625 -7.023438 16.625 -8.015625 C 16.625 -9.140625 16.382812 -10.164062 15.90625 -11.09375 C 15.425781 -12.019531 14.765625 -12.753906 13.921875 -13.296875 C 13.078125 -13.835938 12.132812 -14.109375 11.09375 -14.109375 L 5.09375 -14.109375 L 5.09375 -1.890625 Z M 11.3125 -1.890625 "/></g></g></g><g fill="#ffffff" fill-opacity="1"><g transform="translate(185.010598, 150.848017)"><g/></g></g><g fill="#ffffff" fill-opacity="1"><g transform="translate(192.936706, 150.848017)"><g><path d="M 2.46875 0 L 0.359375 0 L 7.984375 -16 L 9.921875 -16 L 17.421875 0 L 15.3125 0 L 12.703125 -5.5 L 4.984375 -5.5 Z M 8.9375 -13.703125 L 5.9375 -7.375 L 11.875 -7.375 Z M 8.9375 -13.703125 "/></g></g></g><g fill="#ffffff" fill-opacity="1"><g transform="translate(210.781156, 150.848017)"><g><path d="M 5.0625 0 L 3.171875 0 L 3.171875 -16 L 5.09375 -16 L 11.03125 -5.1875 L 17.15625 -16 L 19.015625 -16 L 19.015625 0 L 17.109375 0 L 17.109375 -12.25 L 11.03125 -1.34375 L 5.0625 -12.25 Z M 5.0625 0 "/></g></g></g><g fill="#ffffff" fill-opacity="1"><g transform="translate(232.995669, 150.848017)"><g><path d="M 2.46875 0 L 0.359375 0 L 7.984375 -16 L 9.921875 -16 L 17.421875 0 L 15.3125 0 L 12.703125 -5.5 L 4.984375 -5.5 Z M 8.9375 -13.703125 L 5.9375 -7.375 L 11.875 -7.375 Z M 8.9375 -13.703125 "/></g></g></g><g fill="#ffffff" fill-opacity="1"><g transform="translate(250.840119, 150.848017)"><g><path d="M 3.234375 0 L 3.234375 -16 L 11.25 -16 C 12.175781 -16 12.878906 -15.976562 13.359375 -15.9375 C 13.847656 -15.90625 14.269531 -15.828125 14.625 -15.703125 C 14.988281 -15.585938 15.375 -15.394531 15.78125 -15.125 C 16.382812 -14.726562 16.859375 -14.175781 17.203125 -13.46875 C 17.554688 -12.757812 17.734375 -12.035156 17.734375 -11.296875 C 17.734375 -10.585938 17.585938 -9.90625 17.296875 -9.25 C 17.003906 -8.59375 16.59375 -8.046875 16.0625 -7.609375 C 15.707031 -7.304688 15.351562 -7.085938 15 -6.953125 C 14.65625 -6.828125 14.195312 -6.71875 13.625 -6.625 L 17.359375 0 L 15.1875 0 L 11.484375 -6.625 L 5.125 -6.625 L 5.125 0 Z M 12.015625 -8.5 C 12.804688 -8.5 13.382812 -8.523438 13.75 -8.578125 C 14.125 -8.640625 14.460938 -8.78125 14.765625 -9 C 15.109375 -9.238281 15.375 -9.566406 15.5625 -9.984375 C 15.757812 -10.398438 15.859375 -10.828125 15.859375 -11.265625 C 15.859375 -12.253906 15.53125 -12.972656 14.875 -13.421875 C 14.226562 -13.878906 13.390625 -14.109375 12.359375 -14.109375 L 5.125 -14.109375 L 5.125 -8.5 Z M 12.015625 -8.5 "/></g></g></g><g fill="#ffffff" fill-opacity="1"><g transform="translate(109.939531, 166.783369)"><g><path d="M 1.5625 -3.390625 L 1.5625 0 L 0.796875 0 L 0.796875 -8.359375 L 3.109375 -8.359375 C 3.410156 -8.359375 3.707031 -8.320312 4 -8.25 C 4.300781 -8.1875 4.578125 -8.066406 4.828125 -7.890625 C 5.078125 -7.710938 5.28125 -7.46875 5.4375 -7.15625 C 5.59375 -6.851562 5.671875 -6.460938 5.671875 -5.984375 L 5.671875 -5.765625 C 5.671875 -5.285156 5.59375 -4.890625 5.4375 -4.578125 C 5.28125 -4.273438 5.078125 -4.035156 4.828125 -3.859375 C 4.578125 -3.679688 4.300781 -3.554688 4 -3.484375 C 3.707031 -3.421875 3.410156 -3.390625 3.109375 -3.390625 Z M 1.5625 -4.09375 L 3.125 -4.09375 C 3.300781 -4.09375 3.492188 -4.113281 3.703125 -4.15625 C 3.910156 -4.195312 4.101562 -4.28125 4.28125 -4.40625 C 4.457031 -4.53125 4.597656 -4.703125 4.703125 -4.921875 C 4.816406 -5.148438 4.875 -5.441406 4.875 -5.796875 L 4.875 -5.953125 C 4.875 -6.316406 4.816406 -6.609375 4.703125 -6.828125 C 4.597656 -7.054688 4.457031 -7.226562 4.28125 -7.34375 C 4.101562 -7.46875 3.910156 -7.550781 3.703125 -7.59375 C 3.492188 -7.632812 3.300781 -7.65625 3.125 -7.65625 L 1.5625 -7.65625 Z M 1.5625 -4.09375 "/></g></g></g><g fill="#ffffff" fill-opacity="1"><g transform="translate(118.072551, 166.783369)"><g><path d="M 2.921875 0.125 C 2.359375 0.125 1.898438 0 1.546875 -0.25 C 1.203125 -0.507812 0.945312 -0.851562 0.78125 -1.28125 C 0.613281 -1.707031 0.53125 -2.1875 0.53125 -2.71875 L 0.53125 -2.96875 C 0.53125 -3.5 0.613281 -3.972656 0.78125 -4.390625 C 0.945312 -4.816406 1.203125 -5.15625 1.546875 -5.40625 C 1.898438 -5.664062 2.359375 -5.796875 2.921875 -5.796875 C 3.472656 -5.796875 3.925781 -5.664062 4.28125 -5.40625 C 4.632812 -5.15625 4.894531 -4.816406 5.0625 -4.390625 C 5.226562 -3.972656 5.3125 -3.5 5.3125 -2.96875 L 5.3125 -2.71875 C 5.3125 -2.1875 5.226562 -1.707031 5.0625 -1.28125 C 4.894531 -0.851562 4.632812 -0.507812 4.28125 -0.25 C 3.925781 0 3.472656 0.125 2.921875 0.125 Z M 2.921875 -0.5625 C 3.484375 -0.5625 3.894531 -0.753906 4.15625 -1.140625 C 4.414062 -1.535156 4.546875 -2.0625 4.546875 -2.71875 L 4.546875 -2.96875 C 4.546875 -3.613281 4.414062 -4.132812 4.15625 -4.53125 C 3.894531 -4.925781 3.484375 -5.125 2.921875 -5.125 C 2.347656 -5.125 1.929688 -4.925781 1.671875 -4.53125 C 1.410156 -4.132812 1.28125 -3.613281 1.28125 -2.96875 L 1.28125 -2.71875 C 1.28125 -2.0625 1.410156 -1.535156 1.671875 -1.140625 C 1.929688 -0.753906 2.347656 -0.5625 2.921875 -0.5625 Z M 2.921875 -0.5625 "/></g></g></g><g fill="#ffffff" fill-opacity="1"><g transform="translate(125.894821, 166.783369)"><g><path d="M 2.953125 -5.796875 C 2.992188 -5.796875 3.03125 -5.789062 3.0625 -5.78125 C 3.09375 -5.78125 3.113281 -5.78125 3.125 -5.78125 L 3.125 -5.0625 L 2.96875 -5.0625 C 2.6875 -5.0625 2.445312 -5.015625 2.25 -4.921875 C 2.050781 -4.835938 1.890625 -4.726562 1.765625 -4.59375 C 1.640625 -4.46875 1.535156 -4.34375 1.453125 -4.21875 L 1.453125 0 L 0.703125 0 L 0.703125 -4.078125 L 0.640625 -5.6875 L 1.265625 -5.6875 L 1.375 -4.9375 C 1.519531 -5.164062 1.722656 -5.363281 1.984375 -5.53125 C 2.253906 -5.707031 2.578125 -5.796875 2.953125 -5.796875 Z M 2.953125 -5.796875 "/></g></g></g><g fill="#ffffff" fill-opacity="1"><g transform="translate(131.456132, 166.783369)"><g><path d="M 1.984375 -5.6875 L 3.796875 -5.6875 L 3.796875 -5 L 1.984375 -5 L 1.984375 -1.671875 C 1.984375 -1.222656 2.078125 -0.925781 2.265625 -0.78125 C 2.453125 -0.632812 2.722656 -0.5625 3.078125 -0.5625 C 3.203125 -0.5625 3.320312 -0.570312 3.4375 -0.59375 C 3.5625 -0.613281 3.644531 -0.632812 3.6875 -0.65625 L 3.6875 0 C 3.644531 0.0078125 3.554688 0.03125 3.421875 0.0625 C 3.296875 0.101562 3.117188 0.125 2.890625 0.125 C 2.410156 0.125 2.015625 -0.00390625 1.703125 -0.265625 C 1.390625 -0.523438 1.234375 -0.960938 1.234375 -1.578125 L 1.234375 -5 L 0.328125 -5 L 0.328125 -5.6875 L 1.234375 -5.6875 L 1.234375 -7.28125 L 1.984375 -7.28125 Z M 1.984375 -5.6875 "/></g></g></g><g fill="#ffffff" fill-opacity="1"><g transform="translate(137.735384, 166.783369)"><g><path d="M 1.984375 -6.90625 L 1.984375 -5.6875 L 3.578125 -5.6875 L 3.578125 -5 L 1.984375 -5 L 1.984375 0 L 1.234375 0 L 1.234375 -5 L 0.328125 -5 L 0.328125 -5.6875 L 1.234375 -5.6875 L 1.234375 -7 C 1.234375 -7.613281 1.390625 -8.046875 1.703125 -8.296875 C 2.015625 -8.554688 2.410156 -8.6875 2.890625 -8.6875 C 3.117188 -8.6875 3.296875 -8.671875 3.421875 -8.640625 C 3.554688 -8.609375 3.644531 -8.585938 3.6875 -8.578125 L 3.6875 -7.921875 C 3.644531 -7.941406 3.5625 -7.960938 3.4375 -7.984375 C 3.320312 -8.003906 3.203125 -8.015625 3.078125 -8.015625 C 2.722656 -8.015625 2.453125 -7.941406 2.265625 -7.796875 C 2.078125 -7.648438 1.984375 -7.351562 1.984375 -6.90625 Z M 1.984375 -6.90625 "/></g></g></g><g fill="#ffffff" fill-opacity="1"><g transform="translate(143.800323, 166.783369)"><g><path d="M 2.921875 0.125 C 2.359375 0.125 1.898438 0 1.546875 -0.25 C 1.203125 -0.507812 0.945312 -0.851562 0.78125 -1.28125 C 0.613281 -1.707031 0.53125 -2.1875 0.53125 -2.71875 L 0.53125 -2.96875 C 0.53125 -3.5 0.613281 -3.972656 0.78125 -4.390625 C 0.945312 -4.816406 1.203125 -5.15625 1.546875 -5.40625 C 1.898438 -5.664062 2.359375 -5.796875 2.921875 -5.796875 C 3.472656 -5.796875 3.925781 -5.664062 4.28125 -5.40625 C 4.632812 -5.15625 4.894531 -4.816406 5.0625 -4.390625 C 5.226562 -3.972656 5.3125 -3.5 5.3125 -2.96875 L 5.3125 -2.71875 C 5.3125 -2.1875 5.226562 -1.707031 5.0625 -1.28125 C 4.894531 -0.851562 4.632812 -0.507812 4.28125 -0.25 C 3.925781 0 3.472656 0.125 2.921875 0.125 Z M 2.921875 -0.5625 C 3.484375 -0.5625 3.894531 -0.753906 4.15625 -1.140625 C 4.414062 -1.535156 4.546875 -2.0625 4.546875 -2.71875 L 4.546875 -2.96875 C 4.546875 -3.613281 4.414062 -4.132812 4.15625 -4.53125 C 3.894531 -4.925781 3.484375 -5.125 2.921875 -5.125 C 2.347656 -5.125 1.929688 -4.925781 1.671875 -4.53125 C 1.410156 -4.132812 1.28125 -3.613281 1.28125 -2.96875 L 1.28125 -2.71875 C 1.28125 -2.0625 1.410156 -1.535156 1.671875 -1.140625 C 1.929688 -0.753906 2.347656 -0.5625 2.921875 -0.5625 Z M 2.921875 -0.5625 "/></g></g></g><g fill="#ffffff" fill-opacity="1"><g transform="translate(151.622592, 166.783369)"><g><path d="M 0.78125 0 L 0.78125 -8.578125 L 1.53125 -8.578125 L 1.53125 0 Z M 0.78125 0 "/></g></g></g><g fill="#ffffff" fill-opacity="1"><g transform="translate(155.930198, 166.783369)"><g><path d="M 0.78125 0 L 0.78125 -5.6875 L 1.53125 -5.6875 L 1.53125 0 Z M 1.640625 -7.984375 L 1.640625 -7.015625 L 0.671875 -7.015625 L 0.671875 -7.984375 Z M 1.640625 -7.984375 "/></g></g></g><g fill="#ffffff" fill-opacity="1"><g transform="translate(160.237804, 166.783369)"><g><path d="M 2.921875 0.125 C 2.359375 0.125 1.898438 0 1.546875 -0.25 C 1.203125 -0.507812 0.945312 -0.851562 0.78125 -1.28125 C 0.613281 -1.707031 0.53125 -2.1875 0.53125 -2.71875 L 0.53125 -2.96875 C 0.53125 -3.5 0.613281 -3.972656 0.78125 -4.390625 C 0.945312 -4.816406 1.203125 -5.15625 1.546875 -5.40625 C 1.898438 -5.664062 2.359375 -5.796875 2.921875 -5.796875 C 3.472656 -5.796875 3.925781 -5.664062 4.28125 -5.40625 C 4.632812 -5.15625 4.894531 -4.816406 5.0625 -4.390625 C 5.226562 -3.972656 5.3125 -3.5 5.3125 -2.96875 L 5.3125 -2.71875 C 5.3125 -2.1875 5.226562 -1.707031 5.0625 -1.28125 C 4.894531 -0.851562 4.632812 -0.507812 4.28125 -0.25 C 3.925781 0 3.472656 0.125 2.921875 0.125 Z M 2.921875 -0.5625 C 3.484375 -0.5625 3.894531 -0.753906 4.15625 -1.140625 C 4.414062 -1.535156 4.546875 -2.0625 4.546875 -2.71875 L 4.546875 -2.96875 C 4.546875 -3.613281 4.414062 -4.132812 4.15625 -4.53125 C 3.894531 -4.925781 3.484375 -5.125 2.921875 -5.125 C 2.347656 -5.125 1.929688 -4.925781 1.671875 -4.53125 C 1.410156 -4.132812 1.28125 -3.613281 1.28125 -2.96875 L 1.28125 -2.71875 C 1.28125 -2.0625 1.410156 -1.535156 1.671875 -1.140625 C 1.929688 -0.753906 2.347656 -0.5625 2.921875 -0.5625 Z M 2.921875 -0.5625 "/></g></g></g></svg>